<svg width="29" height="45" viewBox="0 0 29 45" fill="none" xmlns="http://www.w3.org/2000/svg">
<rect x="0.305353" y="0.305353" width="28.3893" height="44.3893" fill="#F4F4F6"/>
<rect x="0.305353" y="0.305353" width="28.3893" height="44.3893" stroke="#4D4D4D" stroke-width="0.610707"/>
<g clip-path="url(#clip0_10812_443088)">
<path d="M9.37598 18.3125H11.8076L11.9043 18.3213C11.9996 18.338 12.0898 18.3783 12.166 18.4395C12.267 18.5206 12.3379 18.6336 12.3672 18.7598V18.7607L12.6973 20.2285L12.7549 20.4824L12.9961 20.5811C13.5118 20.7919 13.9958 21.0736 14.4346 21.417L14.6426 21.5791L14.8936 21.5L16.3232 21.0488L16.3223 21.0479C16.4477 21.0083 16.5834 21.0139 16.7061 21.0615C16.8285 21.1091 16.9312 21.1968 16.9971 21.3105L18.21 23.4072V23.4082C18.2749 23.5227 18.2999 23.656 18.2803 23.7861C18.2655 23.8834 18.2267 23.9751 18.168 24.0527L18.1016 24.126L17.002 25.1367L16.8135 25.3105L16.8438 25.5654C16.8787 25.8519 16.8975 26.1337 16.8975 26.4062C16.8975 26.6788 16.8787 26.9606 16.8438 27.2471L16.8135 27.502L17.002 27.6758L18.1035 28.6885C18.1983 28.778 18.2605 28.8965 18.2803 29.0254C18.2952 29.1224 18.2858 29.2211 18.2529 29.3125L18.2119 29.4014L16.9951 31.5059L16.9922 31.5107C16.87 31.7282 16.588 31.8463 16.3232 31.7637H16.3242L14.8936 31.3125L14.6416 31.2334L14.4346 31.3955C13.996 31.739 13.5118 32.0209 12.9961 32.2314L12.7549 32.3301L12.6973 32.584L12.3672 34.0527V34.0537C12.3097 34.3103 12.0732 34.4998 11.8115 34.5H9.37988C9.24968 34.4992 9.12303 34.4545 9.02148 34.373C8.92002 34.2915 8.84827 34.1777 8.81934 34.0508H8.82031L8.48926 32.584L8.43262 32.3301L8.19141 32.2314L7.81055 32.0596C7.43634 31.8755 7.08195 31.653 6.75293 31.3955L6.54492 31.2334L6.29395 31.3125L4.86719 31.7627C4.59977 31.8455 4.31787 31.7287 4.19336 31.5068L4.19043 31.501L2.97559 29.4014C2.91163 29.2876 2.88772 29.1555 2.90723 29.0264C2.92661 28.8982 2.98754 28.78 3.08105 28.6904L4.18555 27.6758L4.37402 27.502L4.34277 27.2471C4.30782 26.9607 4.29004 26.6788 4.29004 26.4062C4.29004 26.1337 4.30821 25.8521 4.34375 25.5664L4.37598 25.3105L4.18555 25.1367L3.08789 24.1279H3.08887C2.88947 23.9405 2.84434 23.651 2.97266 23.416L4.19336 21.3066L4.19629 21.2998C4.31657 21.0853 4.5981 20.9666 4.86328 21.0479V21.0488L6.29395 21.5L6.54492 21.5791L6.75293 21.417C7.19169 21.0736 7.67572 20.7919 8.19141 20.5811L8.43262 20.4824L8.48926 20.2285L8.82031 18.7598V18.7588C8.8778 18.5021 9.11419 18.3126 9.37598 18.3125ZM10.5938 22.3252C8.34319 22.3252 6.5127 24.1557 6.5127 26.4062C6.5127 28.6568 8.34319 30.4873 10.5938 30.4873C12.8443 30.4873 14.6748 28.6568 14.6748 26.4062C14.6748 24.1557 12.8443 22.3252 10.5938 22.3252Z" fill="#ff0000ff" stroke="#4D4D4D"/>
</g>
<g clip-path="url(#clip1_10812_443088)">
<path d="M20.7559 10.5H22.3018L22.3633 10.5107C22.3826 10.5177 22.4007 10.528 22.417 10.541C22.4491 10.5668 22.4719 10.6025 22.4814 10.6426V10.6436L22.6914 11.5771L22.749 11.832L22.9902 11.9307C23.3028 12.0585 23.5964 12.2284 23.8623 12.4365L24.0703 12.5996L24.3213 12.5195L25.2305 12.2324C25.2709 12.2197 25.315 12.222 25.3545 12.2373C25.3938 12.2527 25.4271 12.2809 25.4482 12.3174L26.2188 13.6494V13.6504C26.24 13.6878 26.2486 13.7318 26.2422 13.7744C26.2357 13.8167 26.2147 13.8554 26.1836 13.8848L25.4854 14.5264L25.2959 14.7002L25.3271 14.9561C25.3485 15.1315 25.3594 15.3033 25.3594 15.4688C25.3594 15.6342 25.3485 15.806 25.3271 15.9814L25.2959 16.2373L25.4854 16.4111L26.1699 17.04H26.1709L26.1787 17.0479L26.1846 17.0527C26.2156 17.0819 26.2357 17.121 26.2422 17.1631C26.2485 17.2045 26.2407 17.2465 26.2207 17.2832L25.4463 18.623L25.4434 18.6279C25.4089 18.6892 25.3195 18.7319 25.2305 18.7041H25.2295L24.3213 18.418L24.0703 18.3379L23.8623 18.501C23.5965 18.7092 23.3028 18.8792 22.9902 19.0068L22.749 19.1055L22.6914 19.3604L22.4814 20.2949V20.2959C22.4633 20.3764 22.3859 20.4375 22.3047 20.4375H20.7588C20.7168 20.4372 20.6762 20.4228 20.6436 20.3965C20.6273 20.3834 20.6135 20.368 20.6025 20.3506L20.5791 20.293L20.3691 19.3604L20.3115 19.1055L20.0703 19.0068L19.8398 18.9033C19.6129 18.7917 19.3978 18.6571 19.1982 18.501L18.9902 18.3379L18.7393 18.418L17.832 18.7041C17.7414 18.7321 17.6523 18.6898 17.6162 18.626L17.6123 18.6201L16.8418 17.2861C16.8206 17.2488 16.812 17.2055 16.8184 17.1631C16.8248 17.1208 16.8448 17.0811 16.876 17.0518L17.5752 16.4111L17.7646 16.2373L17.7334 15.9814C17.712 15.806 17.7012 15.6342 17.7012 15.4688C17.7012 15.3033 17.7117 15.1317 17.7334 14.957L17.7656 14.7012L17.5752 14.5264L16.8779 13.8848C16.8287 13.8376 16.8083 13.7735 16.8193 13.7119L16.8408 13.6514L17.6143 12.3145L17.6182 12.3086C17.6512 12.2496 17.7404 12.2052 17.8311 12.2334V12.2324L18.7393 12.5195L18.9902 12.5986L19.1982 12.4365C19.4642 12.2284 19.7578 12.0585 20.0703 11.9307L20.3115 11.832L20.3691 11.5771L20.5791 10.6426V10.6416C20.5973 10.5611 20.6747 10.5 20.7559 10.5ZM21.5303 12.6904C19.9977 12.6904 18.752 13.9362 18.752 15.4688C18.752 17.0013 19.9977 18.2471 21.5303 18.2471C23.0629 18.2471 24.3086 17.0013 24.3086 15.4688C24.3086 13.9362 23.0629 12.6904 21.5303 12.6904Z" fill="#4D4D4D" stroke="#4D4D4D"/>
</g>
<defs>
<clipPath id="clip0_10812_443088">
<rect width="17.1875" height="17.1875" fill="white" transform="translate(2 17.8125)"/>
</clipPath>
<clipPath id="clip1_10812_443088">
<rect width="10.9375" height="10.9375" fill="white" transform="translate(16.0625 10)"/>
</clipPath>
</defs>
</svg>
