<svg width="29" height="45" viewBox="0 0 29 45" fill="#F4F4F5" xmlns="http://www.w3.org/2000/svg">
<rect x="0.305353" y="0.305353" width="28.3893" height="44.3893" fill="#F4F4F6"/>
<rect x="0.305353" y="0.305353" width="28.3893" height="44.3893" stroke="#4D4D4D" stroke-width="0.610707"/>
<path d="M18.4448 28.3227L18.4419 28.3198L17.3405 27.3079C17.3777 27.0028 17.397 26.7006 17.397 26.4062C17.397 26.1119 17.3777 25.8097 17.3405 25.5046L18.4448 24.4898C18.6221 24.3228 18.7383 24.1011 18.7746 23.8603C18.811 23.6194 18.7654 23.3733 18.6453 23.1614L17.43 21.0602C17.3071 20.848 17.1156 20.6839 16.887 20.5951C16.6584 20.5063 16.4063 20.4981 16.1724 20.5718L14.743 21.023C14.2679 20.6512 13.7438 20.3468 13.1854 20.1185L12.8552 18.6511C12.8013 18.414 12.6688 18.2022 12.4792 18.05C12.2897 17.8977 12.0542 17.814 11.8111 17.8125H9.37621C8.8792 17.8125 8.44021 18.1656 8.33207 18.6504L8.00192 20.1185C7.44354 20.3468 6.91938 20.6512 6.44431 21.023L5.01345 20.5718C4.53148 20.4221 4.00082 20.6262 3.76019 21.0559L2.53988 23.1657C2.29496 23.6025 2.37803 24.1468 2.74613 24.4927L3.84756 25.5046C3.80961 25.8097 3.79027 26.1119 3.79027 26.4062C3.79027 26.7006 3.80961 27.0028 3.84685 27.3079L2.74255 28.3227C2.56516 28.4895 2.44896 28.7111 2.4126 28.9518C2.37623 29.1926 2.42182 29.4386 2.54203 29.6504L3.75733 31.7516C4.00082 32.1855 4.52933 32.3911 5.01488 32.2407L6.44431 31.7895C6.91938 32.1613 7.44354 32.4657 8.00192 32.694L8.33207 34.1607C8.38588 34.3979 8.51833 34.6099 8.7079 34.7623C8.89746 34.9146 9.133 34.9984 9.37621 35H11.8111C12.3081 35 12.7471 34.6469 12.8552 34.1621L13.1854 32.694C13.7439 32.466 14.2681 32.1616 14.743 31.7895L16.1739 32.2407C16.6573 32.3918 17.1865 32.1855 17.4278 31.7559L18.6482 29.6461C18.7671 29.4345 18.8116 29.1892 18.7748 28.9493C18.7379 28.7094 18.6217 28.4888 18.4448 28.3227ZM10.5937 29.987C8.61924 29.987 7.01293 28.3807 7.01293 26.4062C7.01293 24.4318 8.61924 22.8255 10.5937 22.8255C12.5681 22.8255 14.1744 24.4318 14.1744 26.4062C14.1744 28.3807 12.5681 29.987 10.5937 29.987Z" fill="#4D4D4D"/>
<path d="M26.5265 16.6883L26.5246 16.6865L25.8237 16.0425C25.8474 15.8484 25.8597 15.6561 25.8597 15.4688C25.8597 15.2814 25.8474 15.0891 25.8237 14.895L26.5265 14.2492C26.6393 14.1429 26.7132 14.0019 26.7364 13.8486C26.7595 13.6953 26.7305 13.5387 26.6541 13.4038L25.8807 12.0667C25.8025 11.9317 25.6806 11.8273 25.5352 11.7708C25.3897 11.7143 25.2293 11.709 25.0804 11.7559L24.1708 12.043C23.8685 11.8064 23.5349 11.6127 23.1796 11.4674L22.9695 10.5337C22.9352 10.3828 22.8508 10.248 22.7302 10.1511C22.6096 10.0542 22.4598 10.001 22.305 10H20.7556C20.4393 10 20.1599 10.2247 20.0911 10.5332L19.881 11.4674C19.5257 11.6127 19.1921 11.8064 18.8898 12.043L17.9793 11.7559C17.6726 11.6607 17.3349 11.7906 17.1817 12.064L16.4052 13.4066C16.2493 13.6846 16.3022 14.0309 16.5364 14.251L17.2373 14.895C17.2132 15.0891 17.2009 15.2814 17.2009 15.4688C17.2009 15.6561 17.2132 15.8484 17.2369 16.0425L16.5341 16.6883C16.4213 16.7944 16.3473 16.9354 16.3242 17.0887C16.301 17.2419 16.33 17.3984 16.4065 17.5332L17.1799 18.8703C17.3349 19.1465 17.6712 19.2773 17.9802 19.1816L18.8898 18.8945C19.1921 19.1311 19.5257 19.3248 19.881 19.4701L20.0911 20.4034C20.1254 20.5543 20.2096 20.6892 20.3303 20.7862C20.4509 20.8832 20.6008 20.9365 20.7556 20.9375H22.305C22.6213 20.9375 22.9007 20.7128 22.9695 20.4043L23.1796 19.4701C23.535 19.3249 23.8686 19.1312 24.1708 18.8945L25.0813 19.1816C25.389 19.2777 25.7257 19.1465 25.8793 18.873L26.6559 17.5305C26.7316 17.3958 26.7599 17.2397 26.7365 17.087C26.713 16.9344 26.6391 16.794 26.5265 16.6883ZM21.5303 17.7474C20.2739 17.7474 19.2517 16.7252 19.2517 15.4688C19.2517 14.2123 20.2739 13.1901 21.5303 13.1901C22.7867 13.1901 23.8089 14.2123 23.8089 15.4688C23.8089 16.7252 22.7867 17.7474 21.5303 17.7474Z" fill="#4D4D4D"/>
</svg>
