<svg width="59" height="83" viewBox="0 0 59 83" fill="none" xmlns="http://www.w3.org/2000/svg">
<path d="M29.3362 82.1395L3.93085 53.2229L54.7416 53.2229L29.3362 82.1395Z" fill="#A1AAB4"/>
<mask id="path-2-inside-1_11564_115099" fill="white">
<path d="M3.35352 26.8214H55.3195V53.6426H3.35352V26.8214Z"/>
</mask>
<path d="M3.35352 26.8214H55.3195V53.6426H3.35352V26.8214Z" fill="#A1AAB4"/>
<path d="M3.35352 26.8214V27.6596H55.3195V26.8214V25.9833H3.35352V26.8214Z" fill="#4D4D4D" mask="url(#path-2-inside-1_11564_115099)"/>
<path d="M3.35352 6.70534C3.35352 3.00211 6.35558 6.10352e-05 10.0588 6.10352e-05H48.6142C52.3174 6.10352e-05 55.3195 3.00212 55.3195 6.70535V26.8212H3.35352V6.70534Z" fill="#E1E3E6"/>
<mask id="path-5-inside-2_11564_115099" fill="white">
<path d="M55.3193 53.6426H54.3721L29.3359 82.1397L4.2998 53.6426H3.35352V6.70514C3.35366 3.00203 6.35545 6.10352e-05 10.0586 6.10352e-05H48.6143C52.3172 0.000324322 55.3192 3.0022 55.3193 6.70514V53.6426Z"/>
</mask>
<path d="M55.3193 53.6426V55.319H56.9957V53.6426H55.3193ZM54.3721 53.6426V51.9663H53.6134L53.1127 52.5362L54.3721 53.6426ZM29.3359 82.1397L28.0766 83.2461L29.3359 84.6795L30.5953 83.2461L29.3359 82.1397ZM4.2998 53.6426L5.55915 52.5362L5.05844 51.9663H4.2998V53.6426ZM3.35352 53.6426H1.67719V55.319H3.35352V53.6426ZM3.35352 6.70514L1.67719 6.70507V6.70514H3.35352ZM48.6143 6.10352e-05L48.6144 -1.67626H48.6143V6.10352e-05ZM55.3193 6.70514L56.9957 6.70514L56.9957 6.70507L55.3193 6.70514ZM55.3193 53.6426V51.9663H54.3721V53.6426V55.319H55.3193V53.6426ZM54.3721 53.6426L53.1127 52.5362L28.0766 81.0333L29.3359 82.1397L30.5953 83.2461L55.6314 54.749L54.3721 53.6426ZM29.3359 82.1397L30.5953 81.0333L5.55915 52.5362L4.2998 53.6426L3.04046 54.749L28.0766 83.2461L29.3359 82.1397ZM4.2998 53.6426V51.9663H3.35352V53.6426V55.319H4.2998V53.6426ZM3.35352 53.6426H5.02984V6.70514H3.35352H1.67719V53.6426H3.35352ZM3.35352 6.70514L5.02984 6.7052C5.02994 3.92779 7.28133 1.67638 10.0586 1.67638V6.10352e-05V-1.67626C5.42958 -1.67626 1.67737 2.07628 1.67719 6.70507L3.35352 6.70514ZM10.0586 6.10352e-05V1.67638H48.6143V6.10352e-05V-1.67626H10.0586V6.10352e-05ZM48.6143 6.10352e-05L48.6141 1.67638C51.3914 1.67658 53.6429 3.92807 53.643 6.70521L55.3193 6.70514L56.9957 6.70507C56.9955 2.07633 53.243 -1.67593 48.6144 -1.67626L48.6143 6.10352e-05ZM55.3193 6.70514H53.643V53.6426H55.3193H56.9957V6.70514H55.3193Z" fill="#707070" mask="url(#path-5-inside-2_11564_115099)"/>
</svg>
