<svg width="35" height="41" viewBox="0 0 35 41" fill="none" xmlns="http://www.w3.org/2000/svg">
<rect x="10.25" y="20.25" width="4.5" height="5.5" fill="url(#paint0_linear_9578_383097)" stroke="#707070" stroke-width="0.5"/>
<rect x="21.25" y="20.25" width="4.5" height="5.5" fill="url(#paint1_linear_9578_383097)" stroke="#707070" stroke-width="0.5"/>
<rect x="10.25" y="29.25" width="4.5" height="5.5" fill="url(#paint2_linear_9578_383097)" stroke="#707070" stroke-width="0.5"/>
<rect x="21.25" y="29.25" width="4.5" height="5.5" fill="url(#paint3_linear_9578_383097)" stroke="#707070" stroke-width="0.5"/>
<mask id="path-5-inside-1_9578_383097" fill="white">
<path d="M2 4H11V40H2V4Z"/>
</mask>
<path d="M2 4H11V40H2V4Z" fill="url(#paint4_linear_9578_383097)"/>
<path d="M11 40V40.5H11.5V40H11ZM2 40H1.5V40.5H2V40ZM11 4H10.5V40H11H11.5V4H11ZM11 40V39.5H2V40V40.5H11V40ZM2 40H2.5V4H2H1.5V40H2Z" fill="#707070" mask="url(#path-5-inside-1_9578_383097)"/>
<rect x="0.25" y="0.25" width="12.5" height="3.5" fill="url(#paint5_linear_9578_383097)" stroke="#707070" stroke-width="0.5"/>
<mask id="path-8-inside-2_9578_383097" fill="white">
<path d="M24 4H33V40H24V4Z"/>
</mask>
<path d="M24 4H33V40H24V4Z" fill="url(#paint6_linear_9578_383097)"/>
<path d="M33 40V40.5H33.5V40H33ZM24 40H23.5V40.5H24V40ZM33 4H32.5V40H33H33.5V4H33ZM33 40V39.5H24V40V40.5H33V40ZM24 40H24.5V4H24H23.5V40H24Z" fill="#707070" mask="url(#path-8-inside-2_9578_383097)"/>
<rect x="22.25" y="0.25" width="12.5" height="3.5" fill="url(#paint7_linear_9578_383097)" stroke="#707070" stroke-width="0.5"/>
<rect x="14.25" y="16.25" width="7.5" height="23.5" fill="url(#paint8_linear_9578_383097)" stroke="#707070" stroke-width="0.5"/>
<line x1="21.5743" y1="16.8585" x2="14.2384" y2="40.0753" stroke="#707070" stroke-width="0.5"/>
<line x1="14.239" y1="16.9266" x2="21.239" y2="39.7191" stroke="#707070" stroke-width="0.5"/>
<defs>
<linearGradient id="paint0_linear_9578_383097" x1="12.5" y1="20" x2="12.5" y2="26" gradientUnits="userSpaceOnUse">
<stop stop-color="#ADADAD"/>
<stop offset="0.509615" stop-color="#E3E3E3"/>
<stop offset="1" stop-color="#ADADAD"/>
</linearGradient>
<linearGradient id="paint1_linear_9578_383097" x1="23.5" y1="20" x2="23.5" y2="26" gradientUnits="userSpaceOnUse">
<stop stop-color="#ADADAD"/>
<stop offset="0.509615" stop-color="#E3E3E3"/>
<stop offset="1" stop-color="#ADADAD"/>
</linearGradient>
<linearGradient id="paint2_linear_9578_383097" x1="12.5" y1="29" x2="12.5" y2="35" gradientUnits="userSpaceOnUse">
<stop stop-color="#ADADAD"/>
<stop offset="0.509615" stop-color="#E3E3E3"/>
<stop offset="1" stop-color="#ADADAD"/>
</linearGradient>
<linearGradient id="paint3_linear_9578_383097" x1="23.5" y1="29" x2="23.5" y2="35" gradientUnits="userSpaceOnUse">
<stop stop-color="#ADADAD"/>
<stop offset="0.509615" stop-color="#E3E3E3"/>
<stop offset="1" stop-color="#ADADAD"/>
</linearGradient>
<linearGradient id="paint4_linear_9578_383097" x1="6.5" y1="4" x2="6.5" y2="40" gradientUnits="userSpaceOnUse">
<stop stop-color="#ADADAD"/>
<stop offset="0.509615" stop-color="#E3E3E3"/>
<stop offset="1" stop-color="#ADADAD"/>
</linearGradient>
<linearGradient id="paint5_linear_9578_383097" x1="6.5" y1="0" x2="6.5" y2="4" gradientUnits="userSpaceOnUse">
<stop stop-color="#ADADAD"/>
<stop offset="0.509615" stop-color="#E3E3E3"/>
<stop offset="1" stop-color="#ADADAD"/>
</linearGradient>
<linearGradient id="paint6_linear_9578_383097" x1="28.5" y1="4" x2="28.5" y2="40" gradientUnits="userSpaceOnUse">
<stop stop-color="#ADADAD"/>
<stop offset="0.509615" stop-color="#E3E3E3"/>
<stop offset="1" stop-color="#ADADAD"/>
</linearGradient>
<linearGradient id="paint7_linear_9578_383097" x1="28.5" y1="0" x2="28.5" y2="4" gradientUnits="userSpaceOnUse">
<stop stop-color="#ADADAD"/>
<stop offset="0.509615" stop-color="#E3E3E3"/>
<stop offset="1" stop-color="#ADADAD"/>
</linearGradient>
<linearGradient id="paint8_linear_9578_383097" x1="18" y1="16" x2="18" y2="40" gradientUnits="userSpaceOnUse">
<stop stop-color="#ADADAD"/>
<stop offset="0.509615" stop-color="#E3E3E3"/>
<stop offset="1" stop-color="#ADADAD"/>
</linearGradient>
</defs>
</svg>
