<svg width="53" height="28" viewBox="0 0 53 28" fill="none" xmlns="http://www.w3.org/2000/svg">
<rect x="0.48552" y="0.48552" width="52.029" height="27.029" rx="1.45656" fill="#DEE7F3"/>
<rect x="0.48552" y="0.48552" width="52.029" height="27.029" rx="1.45656" stroke="#701111" stroke-width="0.97104"/>
<path d="M14.7895 6.672C14.8075 6.372 14.8795 6.156 15.0055 6.024C15.1315 5.886 15.2935 5.817 15.4915 5.817C15.6715 5.817 15.8335 5.874 15.9775 5.988C16.1215 6.096 16.2625 6.294 16.4005 6.582L17.8675 9.615L19.3345 6.582C19.4725 6.294 19.6075 6.096 19.7395 5.988C19.8775 5.874 20.0365 5.817 20.2165 5.817C20.4145 5.817 20.5765 5.886 20.7025 6.024C20.8285 6.156 20.9005 6.372 20.9185 6.672L21.1975 12H20.2435L19.9825 7.122L18.2095 10.767H17.4985L15.7255 7.122L15.4645 12H14.5105L14.7895 6.672ZM24.4395 6.348C24.5415 6.102 24.6525 5.928 24.7725 5.826C24.8925 5.718 25.0545 5.664 25.2585 5.664C25.4685 5.664 25.6335 5.718 25.7535 5.826C25.8735 5.928 25.9845 6.102 26.0865 6.348L28.4265 12H27.3375L26.7075 10.398H23.7555L23.1255 12H22.0905L24.4395 6.348ZM26.3745 9.57L25.2315 6.672L24.0885 9.57H26.3745ZM29.41 6.276C29.41 6.12 29.455 6.006 29.545 5.934C29.635 5.856 29.761 5.817 29.923 5.817C30.025 5.817 30.118 5.832 30.202 5.862C30.292 5.886 30.352 5.907 30.382 5.925V12H29.41V6.276ZM32.038 6.528C32.038 6.294 32.095 6.117 32.209 5.997C32.329 5.877 32.485 5.817 32.677 5.817C32.863 5.817 33.022 5.865 33.154 5.961C33.286 6.057 33.424 6.216 33.568 6.438L36.268 10.524V6.276C36.268 6.12 36.313 6.006 36.403 5.934C36.493 5.856 36.616 5.817 36.772 5.817C36.88 5.817 36.976 5.832 37.06 5.862C37.144 5.886 37.201 5.907 37.231 5.925V12H36.214L33.001 7.149V12H32.038V6.528ZM8.37345 18.672C8.39145 18.372 8.46345 18.156 8.58945 18.024C8.71545 17.886 8.87745 17.817 9.07545 17.817C9.25545 17.817 9.41745 17.874 9.56145 17.988C9.70545 18.096 9.84645 18.294 9.98445 18.582L11.4514 21.615L12.9184 18.582C13.0564 18.294 13.1914 18.096 13.3234 17.988C13.4614 17.874 13.6204 17.817 13.8004 17.817C13.9984 17.817 14.1604 17.886 14.2864 18.024C14.4124 18.156 14.4844 18.372 14.5024 18.672L14.7814 24H13.8274L13.5664 19.122L11.7934 22.767H11.0824L9.30945 19.122L9.04845 24H8.09445L8.37345 18.672ZM22.4245 20.904C22.4245 21.366 22.3465 21.795 22.1905 22.191C22.0345 22.587 21.8155 22.932 21.5335 23.226C21.2575 23.514 20.9245 23.742 20.5345 23.91C20.1445 24.072 19.7155 24.153 19.2475 24.153C18.7795 24.153 18.3505 24.072 17.9605 23.91C17.5765 23.742 17.2435 23.514 16.9615 23.226C16.6855 22.932 16.4695 22.587 16.3135 22.191C16.1575 21.795 16.0795 21.366 16.0795 20.904C16.0795 20.442 16.1575 20.013 16.3135 19.617C16.4695 19.221 16.6855 18.879 16.9615 18.591C17.2435 18.303 17.5765 18.078 17.9605 17.916C18.3505 17.748 18.7795 17.664 19.2475 17.664C19.7155 17.664 20.1445 17.748 20.5345 17.916C20.9245 18.078 21.2575 18.303 21.5335 18.591C21.8155 18.879 22.0345 19.221 22.1905 19.617C22.3465 20.013 22.4245 20.442 22.4245 20.904ZM21.4075 20.904C21.4075 20.556 21.3565 20.235 21.2545 19.941C21.1525 19.647 21.0055 19.392 20.8135 19.176C20.6275 18.96 20.4025 18.792 20.1385 18.672C19.8745 18.552 19.5805 18.492 19.2565 18.492C18.9325 18.492 18.6355 18.552 18.3655 18.672C18.1015 18.792 17.8735 18.96 17.6815 19.176C17.4955 19.392 17.3515 19.647 17.2495 19.941C17.1475 20.235 17.0965 20.556 17.0965 20.904C17.0965 21.252 17.1475 21.576 17.2495 21.876C17.3515 22.17 17.4955 22.425 17.6815 22.641C17.8735 22.857 18.1015 23.028 18.3655 23.154C18.6355 23.274 18.9325 23.334 19.2565 23.334C19.5805 23.334 19.8745 23.274 20.1385 23.154C20.4025 23.028 20.6275 22.857 20.8135 22.641C21.0055 22.425 21.1525 22.17 21.2545 21.876C21.3565 21.576 21.4075 21.252 21.4075 20.904ZM27.626 17.817C27.932 17.817 28.085 17.958 28.085 18.24C28.085 18.342 28.07 18.432 28.04 18.51C28.01 18.588 27.986 18.642 27.968 18.672H25.88V24H24.908V18.672H23.306C23 18.672 22.847 18.531 22.847 18.249C22.847 18.147 22.862 18.057 22.892 17.979C22.922 17.901 22.946 17.847 22.964 17.817H27.626ZM34.8962 20.904C34.8962 21.366 34.8182 21.795 34.6622 22.191C34.5062 22.587 34.2872 22.932 34.0052 23.226C33.7292 23.514 33.3962 23.742 33.0062 23.91C32.6162 24.072 32.1872 24.153 31.7192 24.153C31.2512 24.153 30.8222 24.072 30.4322 23.91C30.0482 23.742 29.7152 23.514 29.4332 23.226C29.1572 22.932 28.9412 22.587 28.7852 22.191C28.6292 21.795 28.5512 21.366 28.5512 20.904C28.5512 20.442 28.6292 20.013 28.7852 19.617C28.9412 19.221 29.1572 18.879 29.4332 18.591C29.7152 18.303 30.0482 18.078 30.4322 17.916C30.8222 17.748 31.2512 17.664 31.7192 17.664C32.1872 17.664 32.6162 17.748 33.0062 17.916C33.3962 18.078 33.7292 18.303 34.0052 18.591C34.2872 18.879 34.5062 19.221 34.6622 19.617C34.8182 20.013 34.8962 20.442 34.8962 20.904ZM33.8792 20.904C33.8792 20.556 33.8282 20.235 33.7262 19.941C33.6242 19.647 33.4772 19.392 33.2852 19.176C33.0992 18.96 32.8742 18.792 32.6102 18.672C32.3462 18.552 32.0522 18.492 31.7282 18.492C31.4042 18.492 31.1072 18.552 30.8372 18.672C30.5732 18.792 30.3452 18.96 30.1532 19.176C29.9672 19.392 29.8232 19.647 29.7212 19.941C29.6192 20.235 29.5682 20.556 29.5682 20.904C29.5682 21.252 29.6192 21.576 29.7212 21.876C29.8232 22.17 29.9672 22.425 30.1532 22.641C30.3452 22.857 30.5732 23.028 30.8372 23.154C31.1072 23.274 31.4042 23.334 31.7282 23.334C32.0522 23.334 32.3462 23.274 32.6102 23.154C32.8742 23.028 33.0992 22.857 33.2852 22.641C33.4772 22.425 33.6242 22.17 33.7262 21.876C33.8282 21.576 33.8792 21.252 33.8792 20.904ZM40.0977 17.817C40.4037 17.817 40.5567 17.958 40.5567 18.24C40.5567 18.342 40.5417 18.432 40.5117 18.51C40.4817 18.588 40.4577 18.642 40.4397 18.672H38.3517V24H37.3797V18.672H35.7777C35.4717 18.672 35.3187 18.531 35.3187 18.249C35.3187 18.147 35.3337 18.057 35.3637 17.979C35.3937 17.901 35.4177 17.847 35.4357 17.817H40.0977ZM41.5743 18.357C41.5743 18.003 41.7633 17.826 42.1413 17.826H43.7253C44.0853 17.826 44.3973 17.877 44.6613 17.979C44.9313 18.081 45.1563 18.219 45.3363 18.393C45.5163 18.567 45.6513 18.771 45.7413 19.005C45.8313 19.239 45.8763 19.488 45.8763 19.752C45.8763 20.142 45.7803 20.481 45.5883 20.769C45.3963 21.057 45.1173 21.279 44.7513 21.435L46.3533 24H45.2193L43.8333 21.669C43.6773 21.687 43.5153 21.696 43.3473 21.696C43.0833 21.696 42.8073 21.678 42.5193 21.642V24H41.5743V18.357ZM43.3563 20.904C43.6323 20.904 43.8663 20.874 44.0583 20.814C44.2563 20.754 44.4153 20.673 44.5353 20.571C44.6553 20.463 44.7423 20.34 44.7963 20.202C44.8503 20.064 44.8773 19.914 44.8773 19.752C44.8773 19.428 44.7693 19.158 44.5533 18.942C44.3433 18.72 44.0073 18.609 43.5453 18.609H42.5193V20.832C42.5493 20.844 42.6333 20.859 42.7713 20.877C42.9153 20.895 43.1103 20.904 43.3563 20.904Z" stroke="#4D4D4D" stroke-width="0.97104" fill="#4D4D4D"/>
</svg>
