<svg width="39" height="37" viewBox="0 0 39 37" fill="none" xmlns="http://www.w3.org/2000/svg">
<rect width="39" height="37" fill="white"/>
<rect x="30" y="3" width="4" height="8" fill="#EDEDED"/>
<rect x="7" y="10" width="30" height="15" fill="#EDEDED"/>
<rect x="8" y="12" width="27" height="11" fill="#CDCDCD"/>
<path d="M1.67578 16.2924H9.5527" stroke="#4D4D4D" stroke-width="1.3913"/>
<path d="M29.7383 15.2692H34.7383" stroke="#4D4D4D" stroke-width="1.3913"/>
<path d="M31.7383 20.2692H34.7383" stroke="#4D4D4D" stroke-width="1.3913"/>
<path d="M9.06055 20.2306H11.0298" stroke="#4D4D4D" stroke-width="1.3913"/>
<path d="M15.4637 28.6001C15.4637 29.4329 14.9706 30.8999 13.1499 31.0939C12.5541 31.1574 12.0176 31.5977 12.0176 32.1969V34.0155C12.0176 34.5592 12.4584 35.0001 13.0022 35.0001H26.2945C26.8383 35.0001 27.2791 34.5592 27.2791 34.0155V32.3669C27.2791 31.7128 26.6391 31.2441 25.987 31.1927C24.93 31.1095 23.833 30.5052 23.833 28.6001" stroke="#4D4D4D" stroke-width="1.3913"/>
<path d="M2.16992 11.3692V14.3231H6.60069V9.89231H29.7392V3H27.7699" stroke="#4D4D4D" stroke-width="1.3913"/>
<path d="M37.1219 3.49219H34.1681V9.89219H36.6296V25.646H6.59886V21.2153H1.67578V24.1691" stroke="#4D4D4D" stroke-width="1.3913"/>
<path d="M12.3888 13.8307H9.66736C8.93541 13.8307 8.45936 14.6009 8.78669 15.2556L11.7405 21.1633C11.9073 21.4969 12.2483 21.7076 12.6212 21.7076H15.3426C16.0746 21.7076 16.5506 20.9373 16.2233 20.2826L13.2694 14.3749C13.1027 14.0414 12.7617 13.8307 12.3888 13.8307Z" stroke="#4D4D4D" stroke-width="1.3913"/>
<path d="M20.2696 13.8307H17.5482C16.8163 13.8307 16.3402 14.6009 16.6676 15.2556L19.6214 21.1633C19.7882 21.4969 20.1291 21.7076 20.5021 21.7076H23.2235C23.9554 21.7076 24.4315 20.9373 24.1041 20.2826L21.1503 14.3749C20.9835 14.0414 20.6426 13.8307 20.2696 13.8307Z" stroke="#4D4D4D" stroke-width="1.3913"/>
<path d="M28.1466 13.8307H25.4252C24.6932 13.8307 24.2172 14.6009 24.5445 15.2556L27.4984 21.1633C27.6651 21.4969 28.0061 21.7076 28.379 21.7076H31.1004C31.8324 21.7076 32.3084 20.9373 31.9811 20.2826L29.0272 14.3749C28.8605 14.0414 28.5195 13.8307 28.1466 13.8307Z" stroke="#4D4D4D" stroke-width="1.3913"/>
<path d="M12.0176 31.554L18.9099 31.554" stroke="#4D4D4D" stroke-width="1.3913"/>
</svg>
